<svg xmlns="http://www.w3.org/2000/svg"><symbol xmlns:rdf="http://www.w3.org/1999/02/22-rdf-syntax-ns#" xmlns:cc="http://creativecommons.org/ns#" xmlns:dc="http://purl.org/dc/elements/1.1/" enable-background="new 0 0 134.658 131.646" xml:space="preserve" height="100%" viewBox="0 0 134.658 131.646" width="100%" version="1.1" y="0px" x="0px" id="Google_plus"><metadata><rdf:RDF><cc:Work rdf:about=""><dc:format>image/svg+xml</dc:format><dc:type rdf:resource="http://purl.org/dc/dcmitype/StillImage"></dc:type><dc:title></dc:title></cc:Work></rdf:RDF></metadata><path d="M126.52,4.109h-118.38c-2.177,0-3.94,1.763-3.94,3.938v115.55c0,2.179,1.763,3.942,3.94,3.942h118.37c2.177,0,3.94-1.764,3.94-3.942v-115.54c0-2.176-1.77-3.939-3.94-3.939z" fill="#DC4A38"></path><path d="M70.479,71.845l-3.983-3.093c-1.213-1.006-2.872-2.334-2.872-4.765,0-2.441,1.659-3.993,3.099-5.43,4.64-3.652,9.276-7.539,9.276-15.73,0-8.423-5.3-12.854-7.84-14.956h6.849l7.189-4.517h-21.779c-5.976,0-14.588,1.414-20.893,6.619-4.752,4.1-7.07,9.753-7.07,14.842,0,8.639,6.633,17.396,18.346,17.396,1.106,0,2.316-0.109,3.534-0.222-0.547,1.331-1.1,2.439-1.1,4.32,0,3.431,1.763,5.535,3.317,7.528-4.977,0.342-14.268,0.893-21.117,5.103-6.523,3.879-8.508,9.525-8.508,13.51,0,8.202,7.731,15.842,23.762,15.842,19.01,0,29.074-10.519,29.074-20.932,0.001-7.649-4.419-11.415-9.284-15.513zm-14.479-12.738c-9.51,0-13.818-12.294-13.818-19.712,0-2.888,0.547-5.87,2.428-8.199,1.773-2.218,4.861-3.657,7.744-3.657,9.168,0,13.923,12.404,13.923,20.382,0,1.996-0.22,5.533-2.762,8.09-1.778,1.774-4.753,3.096-7.515,3.096zm0.109,44.543c-11.826,0-19.452-5.657-19.452-13.523,0-7.864,7.071-10.524,9.504-11.405,4.64-1.561,10.611-1.779,11.607-1.779,1.105,0,1.658,0,2.538,0.111,8.407,5.983,12.056,8.965,12.056,14.629,0,6.859-5.639,11.967-16.253,11.967z" fill="#FFF"></path><polygon points="98.393,58.938,98.393,47.863,92.923,47.863,92.923,58.938,81.866,58.938,81.866,64.469,92.923,64.469,92.923,75.612,98.393,75.612,98.393,64.469,109.51,64.469,109.51,58.938" fill="#FFF"></polygon></symbol><symbol xmlns:rdf="http://www.w3.org/1999/02/22-rdf-syntax-ns#" xmlns:cc="http://creativecommons.org/ns#" xmlns:dc="http://purl.org/dc/elements/1.1/" xml:space="preserve" height="100%" viewBox="0 0 266.893 266.895" width="100%" version="1.1" y="0px" x="0px" id="Facebook"><path d="M248.08,262.31c7.854,0,14.223-6.369,14.223-14.225v-229.27c0-7.857-6.368-14.224-14.223-14.224h-229.27c-7.857,0-14.224,6.367-14.224,14.224v229.27c0,7.855,6.366,14.225,14.224,14.225h229.27z" fill="#3C5A99"></path><path d="M182.41,262.31v-99.803h33.499l5.016-38.895h-38.515v-24.843c0-11.261,3.127-18.935,19.275-18.935l20.596-0.009v-34.788c-3.562-0.474-15.788-1.533-30.012-1.533-29.695,0-50.025,18.126-50.025,51.413v28.684h-33.585v38.895h33.585v99.803h40.149z" fill="#FFF"></path></symbol><symbol xml:space="preserve" version="1.1" viewBox="0 0 341.7375 277.725" width="100%" height="100%" id="twitter"><g transform="matrix(1.25,0,0,-1.25,0,277.725)"><g transform="scale(0.1,0.1)"><path fill-rule="nonzero" fill="#6babe1" d="M859.797,0c-316.75,0-611.574,92.8516-859.797,251.988,43.8789-5.179,88.5273-7.828,133.801-7.828,262.781,0,504.629,89.672,696.59,240.102-245.442,4.527-452.578,166.687-523.953,389.527,34.246-6.551,69.382-10.059,105.527-10.059,51.148,0,100.703,6.852,147.769,19.668-256.589,51.524-449.929,278.222-449.929,549.982,0,2.37,0.008,4.71,0.047,7.05,75.628-42.01,162.113-67.24,254.054-70.15-150.5,100.58-249.519,272.26-249.519,466.85,0,102.8,27.652,199.14,75.933,281.98,276.645-339.34,689.934-562.64,1156.09-586.03-9.56,41.05-14.53,83.86-14.53,127.82,0,309.75,251.14,560.88,560.91,560.88,161.32,0,307.09-68.12,409.41-177.13,127.76,25.16,247.8,71.84,356.17,136.12-41.88-130.98-130.81-240.9-246.62-310.32,113.46,13.56,221.56,43.71,322.15,88.32-75.2-112.48-170.3-211.27-279.88-290.35,1.08-24.05,1.62-48.24,1.62-72.56,0-741.188-564.16-1595.86-1595.843-1595.86"></path></g></g></symbol><symbol xmlns:rdf="http://www.w3.org/1999/02/22-rdf-syntax-ns#" xmlns:cc="http://creativecommons.org/ns#" xmlns:dc="http://purl.org/dc/elements/1.1/" id="YouTube" height="100%" viewBox="0 0 100 99.148132" width="100%" version="1.1" y="0px" x="0px"><metadata id="metadata27"><rdf:RDF><cc:Work rdf:about=""><dc:format>image/svg+xml</dc:format><dc:type rdf:resource="http://purl.org/dc/dcmitype/StillImage"></dc:type><dc:title></dc:title></cc:Work></rdf:RDF></metadata><defs id="defs25"></defs><path id="rect1942" fill="#e5e5e5" d="M84.18401,0h-69.21103c-8.26938,0-14.97298,6.7036-14.97298,14.97298v69.2026c0,8.26937,6.7036,14.97255,14.97298,14.97255h69.21019c8.2698,0,14.97297-6.7036,15.81683-14.69113v-69.20217c-0.84344-8.55081-7.54746-15.25483-15.81599-15.25483z"></path><g id="g12" transform="matrix(0.42192847,0,0,0.42192847,-162.07876,-138.75075)"><path id="path14" d="m433.279,353.763h15.304l1.97,7.879,1.667,5.818,1.364,5.697,1.364,5.939,1.061,4.97h0.606l1.061-4.97,1.212-5.939,1.515-5.697,1.515-5.818,2.121-7.879h14.849l-15.758,47.274v33.577h-14.091v-33.577l-15.76-47.274z"></path><path id="path16" d="m497.826,373.642c11.97,0,18.031,5.697,18.031,16.97v27.88c0,11.273-6.061,16.97-18.031,16.97s-18.031-5.697-18.031-16.97v-27.88c0-11.272,6.06-16.97,18.031-16.97zm0,9.698c-3.182,0-4.849,1.939-4.849,5.576v31.272c0,3.515,1.818,5.576,4.849,5.576s4.849-2.061,4.849-5.576v-31.272c-0.001-3.637-1.819-5.576-4.849-5.576z"></path><path id="path18" d="m553.433,434.614-1.061-5.212c-5.455,4.485-8.638,6.061-12.426,6.061-3.182,0-6.515-1.455-8.029-3.394-1.668-2.061-2.121-4.243-2.121-10.425v-47.274h13.182v46.911c0,3.03,1.061,4.485,3.484,4.485,1.668,0,3.183-0.606,5.91-2.424v-48.972h13.183v60.244h-12.122z"></path></g><path id="rect3708" fill="#cb322c" d="m21.1998,49.25382h56.14813c8.26979,0,14.97339,6.70698,14.97339,14.97678v13.05488c0,8.2698-6.70444,14.97298-14.97339,14.97298h-56.14813c-8.26938,0-14.97298-6.70444-14.97298-14.97298v-13.05488c0-8.2698,6.7036-14.97678,14.97298-14.97678z"></path><g id="g26" fill="#linearGradient3805" transform="matrix(0.42192847,0,0,0.42192847,-4.4285612,-4.43235)"><g id="g20" fill="#FFF"><path id="path28" d="M56.337,150.482h-11.983v-9.588h37.328v9.588h-12.535v63.914h-12.81v-63.914z"></path><path id="path30" d="m105.372,214.396-0.964-4.737c-4.958,4.077-7.851,5.51-11.294,5.51-2.893,0-5.923-1.321-7.3-3.086-1.515-1.873-1.929-3.856-1.929-9.478v-42.978h11.984v42.646c0,2.756,0.964,4.078,3.168,4.078,1.515,0,2.893-0.552,5.372-2.203v-44.521h11.984v54.77h-11.021v-0.001z"></path><path id="path32" d="m129.34,140.895h11.983v23.914c4.683-4.188,7.851-5.841,11.433-5.841,2.756,0,5.785,1.322,7.162,3.085,1.516,1.983,1.93,3.969,1.93,9.809v30.414c0,5.73-0.414,7.715-1.93,9.697-1.377,1.875-4.406,3.196-7.3,3.196-3.582,0-6.612-1.653-11.295-5.951v5.181h-11.983v-73.504zm17.355,65.459c2.203,0,3.168-1.322,3.168-4.078v-30.416c0-2.864-0.965-4.076-3.168-4.076-1.516,0-2.894,0.551-5.372,2.203v34.162c2.48,1.653,3.857,2.205,5.372,2.205z"></path><path id="path34" d="m207.163,195.223v1.983c0.138,1.433,0.138,2.425,0.138,2.976,0,9.697-5.923,14.987-16.805,14.987-10.33,0-16.115-5.51-16.115-15.428v-25.456c0-10.358,5.51-15.317,16.666-15.317,9.918,0,16.116,5.179,16.116,13.664v16.089h-20.799v12.012c0,3.969,1.239,5.621,4.407,5.621,1.516,0,2.893-0.662,3.58-1.652,0.689-0.992,0.828-2.204,0.828-6.171v-3.308h11.984zm-11.983-14.216v-9.257c0-2.534-1.652-3.967-4.408-3.967-2.754,0-4.406,1.433-4.406,3.967v9.257h8.814z"></path></g></g></symbol><symbol height="100%" width="100%" version="1.1" viewBox="0 0 90 85" id="people"><g id="g4" fill="#333" transform="translate(0,-967.3622)"><g id="g6" fill="#333" transform="matrix(1.25,0,0,1.25,0,-263.09055)" fill-rule="nonzero"><path id="path8" d="m23.989,984.36c-13.993,0-15.992,5.6375-15.992,16.905v1.879c0,8.3244,8.9482,25.228,16.005,25.228,7.0569,0,15.978-16.904,15.978-25.228v-1.879c0-11.268-1.999-16.905-15.992-16.905z"></path><path id="path10" d="M12.25,1024.4c-9.7854,0.2-12.25,1.9-12.25,13.2v9.7499c0,5.003,1.5918,5,6.375,5h35.25c4.7986,0,6.375,0,6.375-4.875v-9.8749c0-11.318-2.5144-12.786-12.375-13-1.0678,1.4295-2.1486,2.8515-3.375,4-2.2444,2.102-4.854,3.8749-8.25,3.8749s-6.1437-1.7684-8.375-3.8749c-1.2828-1.211-2.2998-2.7345-3.375-4.25z"></path><path id="path12" d="m55.898,996.36c-10.459,0-11.954,3.9945-11.954,11.977v1.3315c0,5.898,6.6886,17.875,11.963,17.875,5.2749,0,11.944-11.977,11.944-17.875v-1.3315c0-7.9829-1.4942-11.977-11.954-11.977z"></path><path id="path14" d="m65.875,1024.9c-0.95518,1.3265-1.9457,2.577-3.125,3.625-1.7603,1.5645-3.9631,2.875-6.75,2.875-1.8153,0-3.3914-0.555-4.75-1.375,0.46445,2.1914,0.625,4.7474,0.625,7.6249v6.75h15.625c3.3655,0,4.5-0.05,4.5-3.5v-7c0-6.8974-1.3663-8.5519-6.125-8.9999z"></path></g></g></symbol><symbol viewBox="0 0 99.999597 100.0002" height="100%" width="100%" version="1.1" id="copyleft"><g transform="matrix(0.10204037,0,0,0.10204106,1.7249971e-5,-1.7250029e-5)"><circle stroke-width="100" d="M 930,490 C 930,733.00529 733.00529,930 490,930 246.99471,930 50,733.00529 50,490 50,246.99471 246.99471,50 490,50 733.00529,50 930,246.99471 930,490 z" cy="490" stroke="#333" cx="490" r="440" fill="none"></circle><path d="m486,215c-130,0-239,91-267,213h131c24-52,76-88,136-88,83,0,150,67,150,150s-67,150-150,150c-60,0-112-36-136-87h-131c28,121,137,212,267,212,152,0,275-123,275-275s-123-275-275-275z" fill="#333"></path></g></symbol><symbol xmlns:rdf="http://www.w3.org/1999/02/22-rdf-syntax-ns#" xmlns:cc="http://creativecommons.org/ns#" xmlns:dc="http://purl.org/dc/elements/1.1/" version="1.0" viewBox="0 0 120 42" id="CreativeCommons" width="100%" height="100%"><metadata><rdf:RDF><cc:Work rdf:about=""><dc:format>image/svg+xml</dc:format><dc:type rdf:resource="http://purl.org/dc/dcmitype/StillImage"></dc:type><dc:title></dc:title></cc:Work></rdf:RDF></metadata><g><g transform="matrix(0.9937807,0,0,0.9936694,-177.69409,-74.436409)"><path fill="#aab2ab" nodetypes="ccccccc" d="M182.24,75.39l114.06,0.203c1.59,0,3.02-0.237,3.02,3.18l-0.14,37.567h-119.82v-37.706c0-1.685,0.16-3.244,2.88-3.244z"></path><g transform="matrix(0.872921,0,0,0.872921,50.12536,143.2144)"><path d="M187.21-55.679c0.01,8.68-7.03,15.721-15.71,15.727-8.68,0.005-15.72-7.028-15.73-15.708v-0.019c0-8.682,7.03-15.722,15.71-15.727,8.68-0.006,15.72,7.028,15.73,15.708v0.019z" rx="22.939548" ry="22.939548" cy="264.3577" cx="296.35416" type="arc" fill="#FFF"></path><g transform="translate(-289.6157,99.0653)"><path d="M473.88-167.55c3.49,3.49,5.23,7.76,5.23,12.81,0,5.04-1.71,9.27-5.14,12.66-3.63,3.58-7.93,5.37-12.88,5.37-4.9,0-9.12-1.78-12.67-5.32-3.55-3.55-5.32-7.79-5.32-12.71,0-4.93,1.77-9.2,5.32-12.81,3.46-3.48,7.68-5.23,12.67-5.23,5.04,0,9.31,1.75,12.79,5.23zm-23.11,2.35c-2.95,2.97-4.42,6.46-4.42,10.46s1.46,7.46,4.37,10.37c2.92,2.92,6.39,4.38,10.42,4.38s7.53-1.48,10.5-4.42c2.83-2.74,4.24-6.18,4.24-10.33,0-4.12-1.43-7.61-4.3-10.48-2.87-2.88-6.35-4.31-10.44-4.31s-7.55,1.44-10.37,4.33zm7.75,8.7c-0.45-0.98-1.12-1.47-2.02-1.47-1.59,0-2.39,1.07-2.39,3.21s0.8,3.21,2.39,3.21c1.05,0,1.8-0.53,2.25-1.57l2.2,1.17c-1.05,1.87-2.63,2.8-4.73,2.8-1.62,0-2.91-0.49-3.89-1.49-0.97-0.99-1.46-2.36-1.46-4.1,0-1.72,0.5-3.08,1.51-4.09,1-1.01,2.25-1.51,3.75-1.51,2.22,0,3.81,0.87,4.78,2.62l-2.39,1.22zm10.36,0c-0.45-0.98-1.11-1.47-1.98-1.47-1.62,0-2.43,1.07-2.43,3.21s0.81,3.21,2.43,3.21c1.05,0,1.79-0.53,2.21-1.57l2.25,1.17c-1.05,1.87-2.62,2.8-4.72,2.8-1.61,0-2.91-0.49-3.88-1.49-0.98-0.99-1.46-2.36-1.46-4.1,0-1.72,0.49-3.08,1.48-4.09s2.25-1.51,3.77-1.51c2.22,0,3.81,0.87,4.77,2.62l-2.44,1.22z"></path></g></g><path d="M297.3,74.911h-116.23c-1.25,0-2.26,1.014-2.26,2.261v39.498c0,0.28,0.22,0.51,0.51,0.51h119.73c0.28,0,0.51-0.23,0.51-0.51v-39.498c0-1.247-1.02-2.261-2.26-2.261zm-116.23,1.021h116.23c0.68,0,1.24,0.556,1.24,1.24v27.418h-83.08c-3.04,5.51-8.91,9.24-15.64,9.24-6.74,0-12.6-3.73-15.65-9.24h-4.34v-27.418c0-0.684,0.55-1.24,1.24-1.24z"></path><g enable-background="new    " fill="#FFF"><path d="M265.61,112.88c0.08,0.16,0.19,0.29,0.32,0.38,0.13,0.1,0.29,0.17,0.47,0.22,0.18,0.04,0.37,0.07,0.56,0.07,0.13,0,0.27-0.01,0.42-0.04,0.15-0.02,0.29-0.06,0.42-0.12s0.24-0.15,0.32-0.26c0.09-0.11,0.13-0.25,0.13-0.41,0-0.18-0.05-0.33-0.17-0.44-0.11-0.12-0.26-0.21-0.45-0.28-0.19-0.08-0.4-0.14-0.63-0.2-0.24-0.06-0.48-0.12-0.72-0.19-0.25-0.06-0.49-0.13-0.73-0.22-0.23-0.09-0.45-0.21-0.63-0.35-0.19-0.15-0.34-0.33-0.45-0.54-0.12-0.22-0.18-0.48-0.18-0.78,0-0.34,0.08-0.64,0.22-0.89,0.15-0.25,0.34-0.46,0.58-0.63,0.23-0.17,0.5-0.3,0.8-0.38s0.59-0.12,0.89-0.12c0.35,0,0.69,0.04,1.01,0.12,0.31,0.08,0.6,0.2,0.85,0.38,0.25,0.17,0.44,0.4,0.59,0.67s0.22,0.6,0.22,0.98h-1.42c-0.01-0.2-0.06-0.36-0.13-0.49s-0.16-0.24-0.28-0.31c-0.12-0.08-0.25-0.13-0.4-0.16-0.16-0.03-0.32-0.05-0.5-0.05-0.12,0-0.24,0.02-0.35,0.04-0.12,0.03-0.23,0.07-0.32,0.13-0.1,0.06-0.18,0.14-0.24,0.23-0.06,0.1-0.09,0.22-0.09,0.36,0,0.13,0.02,0.24,0.07,0.32s0.15,0.15,0.29,0.22c0.15,0.07,0.35,0.14,0.61,0.21s0.59,0.15,1.01,0.26c0.12,0.02,0.3,0.07,0.52,0.13,0.22,0.07,0.44,0.17,0.65,0.32,0.22,0.14,0.41,0.33,0.57,0.57s0.24,0.55,0.24,0.92c0,0.31-0.06,0.59-0.18,0.85s-0.3,0.49-0.53,0.68-0.52,0.33-0.87,0.44c-0.34,0.11-0.74,0.16-1.2,0.16-0.36,0-0.72-0.05-1.06-0.14-0.35-0.09-0.65-0.23-0.92-0.42-0.26-0.2-0.47-0.44-0.63-0.74-0.15-0.3-0.23-0.65-0.22-1.07h1.42c0,0.23,0.04,0.42,0.12,0.57z"></path><path d="M273.87,107.87l2.49,6.66h-1.52l-0.51-1.48h-2.49l-0.52,1.48h-1.48l2.52-6.66h1.51zm0.08,4.08l-0.84-2.44h-0.02l-0.87,2.44h1.73z"></path></g><g enable-background="new    " fill="#FFF"><path d="M239.18,107.87c0.32,0,0.61,0.03,0.87,0.08,0.26,0.06,0.48,0.15,0.67,0.28,0.19,0.12,0.33,0.29,0.44,0.5,0.1,0.22,0.15,0.48,0.15,0.79,0,0.33-0.08,0.61-0.23,0.84-0.15,0.22-0.38,0.4-0.68,0.55,0.41,0.12,0.72,0.32,0.93,0.62,0.2,0.29,0.3,0.65,0.3,1.07,0,0.33-0.07,0.63-0.2,0.87-0.13,0.25-0.3,0.45-0.52,0.6-0.23,0.16-0.48,0.27-0.76,0.35-0.29,0.07-0.58,0.11-0.88,0.11h-3.23v-6.66h3.14zm-0.19,2.69c0.26,0,0.48-0.06,0.65-0.18,0.16-0.13,0.25-0.33,0.25-0.61,0-0.15-0.03-0.28-0.09-0.38-0.05-0.1-0.13-0.18-0.22-0.23-0.09-0.06-0.2-0.1-0.32-0.12s-0.25-0.03-0.38-0.03h-1.37v1.55h1.48zm0.09,2.83c0.14,0,0.28-0.01,0.41-0.04s0.24-0.08,0.34-0.14c0.1-0.07,0.18-0.16,0.24-0.27s0.09-0.25,0.09-0.43c0-0.34-0.1-0.58-0.29-0.73-0.19-0.14-0.45-0.22-0.77-0.22h-1.59v1.83h1.57z"></path><path d="M241.89,107.87h1.64l1.56,2.63,1.55-2.63h1.64l-2.48,4.1v2.56h-1.46v-2.59l-2.45-4.07z"></path></g><g transform="matrix(0.624995,0,0,0.624995,391.2294,176.9332)"><path d="M-175.01-139.12c0.01,9.42-7.62,17.05-17.03,17.06s-17.05-7.62-17.05-17.03v-0.03c-0.01-9.41,7.62-17.04,17.03-17.05s17.05,7.62,17.05,17.03v0.02z" rx="29.209877" ry="29.209877" cy="252.08646" cx="475.97119" type="arc" fill="#FFF"></path><g transform="translate(-23.9521,-89.72962)"><path d="M-168.22-68.055c-5.17,0-9.55,1.804-13.13,5.413-3.68,3.734-5.52,8.153-5.52,13.256s1.84,9.492,5.52,13.163c3.67,3.672,8.05,5.508,13.13,5.508,5.14,0,9.59-1.852,13.37-5.555,3.55-3.516,5.32-7.888,5.32-13.116,0-5.226-1.8-9.647-5.42-13.256-3.61-3.609-8.04-5.413-13.27-5.413zm0.05,3.36c4.23,0,7.83,1.493,10.79,4.48,2.99,2.957,4.49,6.566,4.49,10.829,0,4.294-1.46,7.857-4.39,10.689-3.09,3.05-6.72,4.574-10.89,4.574-4.18,0-7.78-1.509-10.8-4.527-3.02-3.019-4.53-6.597-4.53-10.736,0-4.138,1.52-7.748,4.58-10.829,2.93-2.987,6.51-4.48,10.75-4.48z"></path><path d="M-176.5-52.021c0.75-4.698,4.06-7.208,8.2-7.208,5.96,0,9.59,4.325,9.59,10.092,0,5.627-3.86,9.999-9.68,9.999-4.01,0-7.59-2.465-8.25-7.301h4.71c0.14,2.511,1.77,3.395,4.1,3.395,2.65,0,4.37-2.465,4.37-6.233,0-3.952-1.49-6.045-4.28-6.045-2.05,0-3.82,0.744-4.19,3.301l1.37-0.007-3.71,3.702-3.7-3.702,1.47,0.007z"></path></g></g><g><circle d="m 253.36866,90.224609 c 0,5.96821 -4.83819,10.806401 -10.8064,10.806401 -5.96821,0 -10.8064,-4.838191 -10.8064,-10.806401 0,-5.96821 4.83819,-10.8064 10.8064,-10.8064 5.96821,0 10.8064,4.83819 10.8064,10.8064 z" cy="90.225" cx="242.56" r="10.806" fill="#FFF"></circle><g><path d="M245.69,87.098c0-0.417-0.34-0.754-0.75-0.754h-4.78c-0.41,0-0.75,0.337-0.75,0.754v4.773h1.33v5.652h3.62v-5.652h1.33v-4.773z"></path><circle d="m 244.18212,84.083008 c 0,0.901505 -0.73081,1.63232 -1.63232,1.63232 -0.9015,0 -1.63232,-0.730815 -1.63232,-1.63232 0,-0.901506 0.73082,-1.63232 1.63232,-1.63232 0.90151,0 1.63232,0.730814 1.63232,1.63232 z" cy="84.083" cx="242.55" r="1.6323"></circle></g><path fill-rule="evenodd" clip-rule="evenodd" d="M242.53,78.318c-3.23,0-5.96,1.128-8.2,3.384-2.3,2.333-3.45,5.095-3.45,8.284s1.15,5.932,3.45,8.227c2.29,2.297,5.03,3.447,8.2,3.447,3.22,0,6-1.16,8.36-3.476,2.22-2.197,3.33-4.93,3.33-8.198,0-3.267-1.13-6.028-3.39-8.284s-5.02-3.384-8.3-3.384zm0.03,2.1c2.65,0,4.9,0.934,6.75,2.801,1.87,1.847,2.81,4.103,2.81,6.767,0,2.684-0.92,4.911-2.75,6.681-1.93,1.906-4.2,2.858-6.81,2.858s-4.85-0.942-6.74-2.829c-1.89-1.886-2.84-4.123-2.84-6.71,0-2.586,0.96-4.842,2.87-6.767,1.83-1.867,4.07-2.801,6.71-2.801z"></path></g></g></g></symbol><symbol id="html5" viewBox="0 0 512 512" width="100%" height="100%"><title>HTML5 Logo</title><polygon fill="#E44D26" points="107.644,470.877 74.633,100.62 437.367,100.62 404.321,470.819 255.778,512"></polygon><polygon fill="#F16529" points="256,480.523 376.03,447.246 404.27,130.894 256,130.894"></polygon><polygon fill="#EBEBEB" points="256,268.217 195.91,268.217 191.76,221.716 256,221.716 256,176.305 255.843,176.305 142.132,176.305 143.219,188.488 154.38,313.627 256,313.627"></polygon><polygon fill="#EBEBEB" points="256,386.153 255.801,386.206 205.227,372.55 201.994,336.333 177.419,336.333 156.409,336.333 162.771,407.634 255.791,433.457 256,433.399"></polygon><path d="M108.382,0h23.077v22.8h21.11V0h23.078v69.044H152.57v-23.12h-21.11v23.12h-23.077V0z"></path><path d="M205.994,22.896h-20.316V0h63.72v22.896h-20.325v46.148h-23.078V22.896z"></path><path d="M259.511,0h24.063l14.802,24.26L313.163,0h24.072v69.044h-22.982V34.822l-15.877,24.549h-0.397l-15.888-24.549v34.222h-22.58V0z"></path><path d="M348.72,0h23.084v46.222h32.453v22.822H348.72V0z"></path><polygon fill="#FFFFFF" points="255.843,268.217 255.843,313.627 311.761,313.627 306.49,372.521 255.843,386.191 255.843,433.435 348.937,407.634 349.62,399.962 360.291,280.411 361.399,268.217 349.162,268.217"></polygon><polygon fill="#FFFFFF" points="255.843,176.305 255.843,204.509 255.843,221.605 255.843,221.716 365.385,221.716 365.385,221.716 365.531,221.716 366.442,211.509 368.511,188.488 369.597,176.305"></polygon></symbol><symbol id="css3" viewBox="0 0 298 420" version="1.1" width="100%" height="100%"><title>CSS3 Logo</title><g id="Page_1" stroke="none" stroke-width="1" fill="none"><g id="Layer_1"><path d="M233.164,15.681 L208.476,15.681 L234.15,43.54 L234.15,56.801 L181.268,56.801 L181.268,41.275 L206.937,41.275 L181.268,13.415 L181.268,0.135 L233.164,0.135 L233.164,15.681 L233.164,15.681 Z M170.786,15.681 L146.098,15.681 L171.771,43.54 L171.771,56.801 L118.889,56.801 L118.889,41.275 L144.561,41.275 L118.889,13.415 L118.889,0.135 L170.786,0.135 L170.786,15.681 L170.786,15.681 Z M109.018,16.312 L82.378,16.312 L82.378,40.625 L109.018,40.625 L109.018,56.801 L63.444,56.801 L63.444,0.135 L109.018,0.135 L109.018,16.312 L109.018,16.312 Z M109.018,16.312" id="Shape1" fill="#131313"></path><path d="M27.142,386.29 L0.071,82.67 L297.521,82.67 L270.425,386.241 L148.614,420.011 L27.142,386.29 Z M27.142,386.29" id="Shape2" fill="#1572B6"></path><path d="M148.798,394.199 L247.225,366.911 L270.382,107.496 L148.798,107.496 L148.798,394.199 Z M148.798,394.199" id="Shape3" fill="#33A9DC"></path><g id="Group" transform="translate(55.000000, 142.000000)"><path d="M93.797,75.496 L143.072,75.496 L146.475,37.364 L93.797,37.364 L93.797,0.125 L93.926,0.125 L187.172,0.125 L186.279,10.116 L177.127,112.732 L93.797,112.732 L93.797,75.496 Z M93.797,75.496" id="Shape4" fill="#FFFFFF"></path><path d="M94.02,172.204 L93.857,172.25 L52.385,161.051 L49.733,131.353 L29.582,131.353 L12.354,131.353 L17.57,189.82 L93.848,210.996 L94.02,210.948 L94.02,172.204 Z M94.02,172.204" id="Shape5" fill="#EBEBEB"></path><path d="M139.907,111.156 L135.423,161.026 L93.891,172.236 L93.891,210.978 L170.23,189.82 L170.79,183.53 L177.268,111.156 L139.907,111.156 Z M139.907,111.156" id="Shape6" fill="#FFFFFF"></path><path d="M93.926,0.125 L93.926,23.253 L93.926,37.272 L93.926,37.364 L4.098,37.364 L3.979,37.364 L3.232,28.994 L1.535,10.116 L0.645,0.125 L93.926,0.125 Z M93.926,0.125" id="Shape7" fill="#EBEBEB"></path><path d="M93.797,75.5 L93.797,98.629 L93.797,112.646 L93.797,112.738 L52.969,112.738 L52.85,112.738 L52.104,104.369 L50.406,85.491 L49.516,75.5 L93.797,75.5 Z M93.797,75.5" id="Shape8" fill="#EBEBEB"></path></g></g></g></symbol><symbol version="1.1" width="100%" height="100%" id="javascript" viewBox="0 0 1052 1052"><rect fill="#F0DB4F" width="1052" height="1052"></rect><path fill="#323330" d="M965.9,801.1c-7.7-48-39-88.3-131.7-125.9,c-32.2-14.8-68.1-25.4-78.8-49.8c-3.8-14.2-4.3-22.2-1.9-30.8c6.9-27.9,40.2-36.6,66.6-28.6c17,5.7,33.1,18.8,42.8,39.7,c45.4-29.4,45.3-29.2,77-49.4c-11.6-18-17.8-26.3-25.4-34c-27.3-30.5-64.5-46.2-124-45c-10.3,1.3-20.7,2.7-31,4,c-29.7,7.5-58,23.1-74.6,44c-49.8,56.5-35.6,155.4,25,196.1c59.7,44.8,147.4,55,158.6,96.9c10.9,51.3-37.7,67.9-86,62,c-35.6-7.4-55.4-25.5-76.8-58.4c-39.4,22.8-39.4,22.8-79.9,46.1c9.6,21,19.7,30.5,35.8,48.7c76.2,77.3,266.9,73.5,301.1-43.5,C964.1,869.2,973.3,842.4,965.9,801.1z M571.9,483.5h-98.4c0,85-0.4,169.4-0.4,254.4c0,54.1,2.8,103.7-6,118.9,c-14.4,29.9-51.7,26.2-68.7,20.4c-17.3-8.5-26.1-20.6-36.3-37.7c-2.8-4.9-4.9-8.7-5.6-9c-26.7,16.3-53.3,32.7-80,49,c13.3,27.3,32.9,51,58,66.4c37.5,22.5,87.9,29.4,140.6,17.3c34.3-10,63.9-30.7,79.4-62.2c22.4-41.3,17.6-91.3,17.4-146.6,C572.4,664.2,571.9,574,571.9,483.5z"></path></symbol><symbol height="100%" width="100%" version="1.1" viewBox="0 0 64 64" id="linkedin"><path fill="#1d87bd" d="m12.8,51.2,0-26.816,8.192,0,0,26.816-8.192,0m8.448-34.24c0.064,2.304-1.664,4.16-4.416,4.16-2.56,0-4.224-1.856-4.224-4.16,0-2.368,1.728-4.16,4.352-4.16s4.288,1.792,4.288,4.16m21.504,34.24,0-14.848c0-3.456-1.152-5.824-4.16-5.824-2.24,0-3.584,1.6-4.224,3.136-0.192,0.576-0.256,1.344-0.256,2.112v15.424h-8.192v-18.24c0-3.328-0.128-6.144-0.192-8.576h7.104l0.384,3.776h0.128c1.088-1.792,3.776-4.352,8.192-4.352,5.376,0,9.472,3.648,9.472,11.584v15.808h-8.256m21.248-45.568c0-3.072-2.56-5.632-5.632-5.632h-52.736c-3.072,0-5.632,2.56-5.632,5.632v52.736c0,3.072,2.56,5.632,5.632,5.632h52.736c3.072,0,5.632-2.56,5.632-5.632v-52.736"></path></symbol><symbol height="100%" width="100%" id="mark-github" viewBox="0 0 1024 1024">  <path d="M512 0C229.252 0 0 229.25199999999995 0 512c0 226.251 146.688 418.126 350.155 485.813 25.593 4.686 34.937-11.125 34.937-24.626 0-12.188-0.469-52.562-0.718-95.314-128.708 23.46-161.707-31.541-172.469-60.373-5.525-14.809-30.407-60.249-52.398-72.263-17.988-9.828-43.26-33.237-0.917-33.735 40.434-0.476 69.348 37.308 78.471 52.75 45.938 77.749 119.876 55.627 148.999 42.5 4.654-32.999 17.902-55.627 32.501-68.373-113.657-12.939-233.22-56.875-233.22-253.063 0-55.94 19.968-101.561 52.658-137.404-5.22-12.999-22.844-65.095 5.063-135.563 0 0 42.937-13.749 140.811 52.501 40.811-11.406 84.594-17.031 128.124-17.22 43.499 0.188 87.314 5.874 128.188 17.28 97.689-66.311 140.686-52.501 140.686-52.501 28 70.532 10.375 122.564 5.124 135.499 32.811 35.844 52.626 81.468 52.626 137.404 0 196.686-119.751 240-233.813 252.686 18.439 15.876 34.748 47.001 34.748 94.748 0 68.437-0.686 123.627-0.686 140.501 0 13.625 9.312 29.561 35.25 24.562C877.436 929.998 1024 738.126 1024 512 1024 229.25199999999995 794.748 0 512 0z"></path></symbol><symbol height="100%" width="100%" id="alert" viewBox="0 0 1024 1024">  <path d="M1005.854 800.247l-438.286-767C556.173 13.30600000000004 534.967 1 512 1s-44.173 12.306-55.567 32.247l-438.286 767c-11.319 19.809-11.238 44.144 0.213 63.876C29.811 883.855 50.899 896 73.714 896h876.572c22.814 0 43.903-12.145 55.354-31.877S1017.173 820.056 1005.854 800.247zM576 768H448V640h128V768zM576 576H448V320h128V576z"></path></symbol><symbol height="100%" width="100%" id="home" viewBox="0 0 1024 1024">  <path d="M1024 576L832 384V128H704v128L512 64 0 576h128l64 320c0 35 29 64 64 64h512c35 0 64-29 64-64l64-320h128zM768 896H576V640H448v256H256l-76-404 332-332 332 332-76 404z"></path></symbol><symbol version="1.1" width="100%" height="100%" viewBox="0 0 75.699998 50.999999" xml:space="preserve" id="freecodecamp_logo">    <path d="m 0,24.499999 c 0,-7.9 2.7,-14.8999999 8.2,-21.0999999 2,-2.3 3.6,-3.39999998102072 4.7,-3.39999998102072 0.4,0 0.8,0.10000000102072 1.1,0.40000000102072 0.3,0.3 0.5,0.6 0.5,0.99999998 0,0.6 -0.7,1.5 -2.1,2.9 -5.7,5.5 -8.6,12.2999999 -8.6,20.3999999 0,9 3,16.3 8.9,21.9 1.2,1.1 1.8,2 1.8,2.7 0,0.4 -0.2,0.8 -0.5,1.1 -0.3,0.3 -0.7,0.5 -1.1,0.5 -1.4,0 -3.3,-1.6 -5.8,-4.8 -4.8,-5.9 -7.1,-13.1 -7.1,-21.6 z"></path>    <path d="m 75.7,26.499999 c 0,7.9 -2.7,14.9 -8.2,21.1 -2,2.3 -3.6,3.4 -4.7,3.4 -0.4,0 -0.8,-0.1 -1.1,-0.4 -0.3,-0.3 -0.5,-0.7 -0.5,-1.1 0,-0.6 0.7,-1.5 2.1,-2.8 5.7,-5.5 8.6,-12.3 8.6,-20.4 0,-9 -3,-16.2999999 -8.9,-21.8999999 -1.2,-1.1 -1.8,-2 -1.8,-2.7 0,-0.4 0.2,-0.79999998 0.5,-1.09999998 0.3,-0.3 0.7,-0.5 1.1,-0.5 1.3,0 3.3,1.59999998 5.8,4.79999998 4.7,5.9999999 7.1,13.1999999 7.1,21.5999999 z"></path>    <g transform="translate(-403.1,-10.000001)">      <line x1="424.39999" y1="54.099998" x2="459.10001" y2="54.099998"></line>      <path d="m 459,56.2 h -34.7 c -1.1,0 -2.1,-0.9 -2.1,-2.1 0,-1.2 0.9,-2.1 2.1,-2.1 H 459 c 1.1,0 2.1,0.9 2.1,2.1 0,1.2 -0.9,2.1 -2.1,2.1 z"></path>    </g>    <path d="m 49.2464,16.0789 c -0.56036,-1.883074 -1.43977,-3.650779 -2.80221,-5.059704 -0.3609,-0.373149 -0.74714,-0.721366 -1.13213,-1.0691589 -0.30173,-0.272573 -1.04972,-0.714182 -1.20565,-1.080993 0.79404,1.8687049 1.58979,3.8071389 0.99013,5.8558689 -0.27089,0.926746 -1.29609,3.146204 -2.63148,2.580351 -1.26313,-0.535425 -1.11607,-3.182546 -1.22468,-4.252128 -0.26708,-2.624301 -0.84687,-5.2435319 -2.2465,-7.5149689 -0.76236,-1.237353 -1.76095,-2.337784 -3.01816,-3.084083 -1.65107,-0.979993 -3.36342,-1.63881498 -5.24226,-0.928437 0.41371,-0.156359 1.50316,1.095783 1.70642,1.337084 0.65841,0.780529 1.20693,1.703895 1.50063,2.685578 0.59671,1.994639 0.0761,4.266075 -0.62079,6.1673199 -1.4423,3.934762 -3.84855,7.473554 -5.00349,11.51988 -0.40274,1.410192 -0.67911,2.859686 -0.75476,4.326083 -0.23749,4.619363 2.16072,8.850785 5.95941,11.434517 0.86209,0.586136 2.39483,1.32018 3.48639,0.942382 -3.18846,-1.705162 -4.24875,-3.106057 -4.74107,-5.11295 -1.14142,-4.652748 3.21255,-7.607094 5.09563,-11.287455 0.50119,-0.97957 0.86504,-2.055914 0.73826,-3.166911 -0.0473,-0.414141 -0.51894,-2.451038 -1.14438,-2.350883 1.89576,-0.303845 3.13014,0.958018 3.77883,2.60444 0.68333,1.73432 1.08944,3.515971 0.78771,5.36059 -0.101,0.616985 -0.56501,2.544431 0.32836,2.669518 1.22974,0.172841 2.28538,-1.458791 2.03309,-3.032949 -0.12974,-0.723901 -0.25905,-1.852646 -0.25905,-1.85307 1.30666,1.609657 1.89913,3.22058 2.09099,4.987441 0.34315,3.162263 -1.00408,7.318463 -3.53837,9.899238 1.06536,-1.085219 2.42146,-1.835322 3.45005,-2.994071 1.05056,-1.182837 1.85222,-2.551193 2.47893,-3.999419 1.403,-3.241286 2.22241,-6.905166 1.99421,-10.444382 -0.10818,-1.68868 -0.35413,-3.459344 -0.85406,-5.138728 z"></path></symbol></svg>
